<svg xmlns="http://www.w3.org/2000/svg" viewBox="0 0 855.63 200.58">
  <g id="Layer_2" data-name="Layer 2">
    <g id="Layer_2-2" data-name="Layer 2">
      <g>
        <path d="M0,197.93v-1.32H2.65c17.85,0,25.12-8.6,25.12-43.2V18.51L8.16,6.61H95.88L76.26,18.51v71.2h.22v56.2c0,33.29-18.73,54.67-56.2,54.67A70,70,0,0,1,0,197.93Z"/>
        <path d="M91,109.55C91,78,115.72,52.9,151.64,52.9c36.37,0,62.6,22,62.6,56.65,0,32.18-20.5,58-62.38,58C120.12,167.51,91,145,91,109.55Zm94.56,38.79c0-18.52-37-87.51-56.43-87.51-5.51,0-8.82,4-8.82,10.8,0,21.61,38.14,88,56.21,88C182.5,159.58,185.59,155.83,185.59,148.34Z"/>
        <path d="M350.46,161.78v3.53H295.35v-17c-14.55,10.58-27.11,19.4-39.45,19.4-19.84,0-28.44-11.47-28.44-37.7V82.66L214.9,71.85,271.55,52v69.21c0,18.51,1.54,25.79,12.56,25.79a35.12,35.12,0,0,0,11.24-2.21V81.55l-12.56-10.8,56.64-19.83V161.78Z"/>
        <path d="M446.77,53.34v58.41h-.22c-22.92-25.35-33.28-31.08-41-29.76v79.79h16.54v3.53H350.45v-3.53h11v-80L348.91,71,405.55,52V79.57c12.57-16.53,26.89-26.89,37-26.89A12.83,12.83,0,0,1,446.77,53.34Z"/>
        <path d="M585.19,161.78v3.53H521.27v-3.53h8.82V95.44c0-17.19-4.19-22.92-13.23-22.92a32.51,32.51,0,0,0-13.22,3.3v86h8.81v3.53H448.53v-3.53h11V81.33L447,70.53,503.64,50.7v22C518,60.39,530.75,51.8,545.73,51.8c18.74,0,28.44,11.68,28.44,34.16v75.82Z"/>
        <path d="M697.6,161.78v3.53H642.5V152.75c-10.36,8.81-22,14.76-34.17,14.76-14.33,0-24-8.15-24-22,0-20.27,21.6-33.72,58.19-37.69,0-24.24-9.7-36.37-26.45-36.37-9.92,0-16.76,2.65-24.25,8.38l-1.1-1.1C605.69,61.94,622,52.9,644,52.9c27.77,0,42.54,15.87,42.54,47.83v61.05Zm-55.1-12.12v-39c-13.23,3.75-18.3,12.12-18.3,23.8,0,10.36,4.41,15.87,13.23,15.87A24.7,24.7,0,0,0,642.5,149.66Z"/>
        <path d="M697.6,161.78h11V30.64l-12.56-10.8L752.7,0V161.78h11v3.53H697.6Z"/>
        <path d="M765,161.78l6.83-35.92h.23l27.33,36.59a22.48,22.48,0,0,0,7.27,1.1c9.7,0,16.31-5.07,16.31-14.11,0-6.61-4-10.36-13.22-15.21l-14.55-7.71c-18.3-9.7-27.11-20.06-27.11-36.81,0-22.26,18.07-36.81,47.39-36.81a102.26,102.26,0,0,1,36.58,6.39l-8.59,34.83h-.22L817.72,57.75a11.19,11.19,0,0,0-3.75-.66c-9.69,0-14.54,5.51-14.54,11.68C799.43,76.48,803,82,816,88.83l16.53,8.81c15.21,8.16,23.14,19.18,23.14,32.85,0,22.92-23.14,37-50.25,37A142.14,142.14,0,0,1,765,161.78Z"/>
      </g>
    </g>
  </g>
</svg>
