<svg xmlns="http://www.w3.org/2000/svg" viewBox="0 0 475.93 472.71">
  <g id="Layer_2" data-name="Layer 2">
    <g id="Layer_1-2" data-name="Layer 1">
      <g id="Digm6C">
        <path d="M475.93,472.71,0,472.62C1,315.64,2.09,157.08,3.12,0L472.65.1C473.74,156.94,474.84,315.5,475.93,472.71ZM113.68,362.88c.53-85.58,1-168.68,1.58-254.28l91.09.8c.09-19.24.18-38.07.25-54.2L51,55.13c.43,2.9,1.67,7.42,1.67,11.95q0,114.36-.33,228.73-.12,57.49-.27,115c0,5.9-.89,11.76,8.36,11.71,47.5-.22,95,0,142.49-.31,2.69,0,7.62-3.35,7.68-5.26.57-17.73.31-35.49.28-54.54ZM360.24,110.16c.57,85,1.13,168.1,1.71,254.93l-99.5-2c.66,16.86,1.91,32.23,1.63,47.57-.17,9.46,3,12.08,12.19,12,44.57-.4,89.16-.58,133.73.12,11.61.19,13.64-3.94,13.59-14.37-.6-115-.75-230-1.07-345,0-3.59-.52-7.18-.63-8.66l-153.18,0c.08,17.43.16,36.25.24,56Zm-52.59,59.45-138.15-.06c.3,44.64.62,91.42.91,134.88H306.7C307,260,307.34,213.52,307.65,169.61Z"/>
      </g>
    </g>
  </g>
</svg>
